<mxfile host="app.diagrams.net" agent="Mozilla/5.0 (X11; Linux x86_64; rv:143.0) Gecko/20100101 Firefox/143.0" version="28.2.5">
  <diagram name="Page-1" id="7e0a89b8-554c-2b80-1dc8-d5c74ca68de4">
    <mxGraphModel dx="1088" dy="612" grid="1" gridSize="10" guides="1" tooltips="1" connect="1" arrows="1" fold="1" page="1" pageScale="1" pageWidth="1100" pageHeight="850" background="none" math="0" shadow="0">
      <root>
        <mxCell id="0" />
        <mxCell id="1" parent="0" />
        <mxCell id="m-6yGSShtTE2XHsjWKcb-70" value="" style="endArrow=none;html=1;rounded=0;exitX=1;exitY=0.5;exitDx=0;exitDy=0;dashed=1;strokeWidth=3;convertToSvg=1;fontSize=18;" parent="1" source="m-6yGSShtTE2XHsjWKcb-61" edge="1">
          <mxGeometry width="50" height="50" relative="1" as="geometry">
            <mxPoint x="340" y="180" as="sourcePoint" />
            <mxPoint x="120" y="200" as="targetPoint" />
          </mxGeometry>
        </mxCell>
        <mxCell id="m-6yGSShtTE2XHsjWKcb-78" value="" style="endArrow=none;html=1;rounded=0;dashed=1;strokeWidth=3;convertToSvg=1;fontSize=18;" parent="1" edge="1">
          <mxGeometry width="50" height="50" relative="1" as="geometry">
            <mxPoint x="1040" y="200" as="sourcePoint" />
            <mxPoint x="1050" y="180" as="targetPoint" />
          </mxGeometry>
        </mxCell>
        <mxCell id="m-6yGSShtTE2XHsjWKcb-74" value="" style="endArrow=none;html=1;rounded=0;strokeWidth=3;convertToSvg=1;fontSize=18;" parent="1" edge="1">
          <mxGeometry width="50" height="50" relative="1" as="geometry">
            <mxPoint x="560" y="200" as="sourcePoint" />
            <mxPoint x="1040" y="200" as="targetPoint" />
          </mxGeometry>
        </mxCell>
        <mxCell id="m-6yGSShtTE2XHsjWKcb-73" value="" style="endArrow=none;html=1;rounded=0;strokeWidth=3;convertToSvg=1;fontSize=18;" parent="1" edge="1">
          <mxGeometry width="50" height="50" relative="1" as="geometry">
            <mxPoint x="560" y="200" as="sourcePoint" />
            <mxPoint x="400" y="40" as="targetPoint" />
          </mxGeometry>
        </mxCell>
        <mxCell id="m-6yGSShtTE2XHsjWKcb-18" value="" style="group;convertToSvg=1;fontSize=18;" parent="1" vertex="1" connectable="0">
          <mxGeometry x="270" y="30" width="20" height="20" as="geometry" />
        </mxCell>
        <mxCell id="m-6yGSShtTE2XHsjWKcb-19" value="" style="endArrow=none;html=1;rounded=0;strokeColor=light-dark(#000000,#0000FF);convertToSvg=1;fontSize=18;" parent="m-6yGSShtTE2XHsjWKcb-18" edge="1">
          <mxGeometry width="50" height="50" relative="1" as="geometry">
            <mxPoint y="10" as="sourcePoint" />
            <mxPoint x="20" y="10" as="targetPoint" />
          </mxGeometry>
        </mxCell>
        <mxCell id="m-6yGSShtTE2XHsjWKcb-20" value="" style="endArrow=none;html=1;rounded=0;strokeColor=light-dark(#000000,#0000FF);convertToSvg=1;fontSize=18;" parent="m-6yGSShtTE2XHsjWKcb-18" edge="1">
          <mxGeometry width="50" height="50" relative="1" as="geometry">
            <mxPoint x="10" y="20" as="sourcePoint" />
            <mxPoint x="10" as="targetPoint" />
          </mxGeometry>
        </mxCell>
        <mxCell id="m-6yGSShtTE2XHsjWKcb-76" value="" style="endArrow=none;html=1;rounded=0;strokeWidth=3;convertToSvg=1;fontSize=18;" parent="m-6yGSShtTE2XHsjWKcb-18" edge="1">
          <mxGeometry width="50" height="50" relative="1" as="geometry">
            <mxPoint x="10" y="9.770000000000003" as="sourcePoint" />
            <mxPoint x="130" y="9.770000000000003" as="targetPoint" />
          </mxGeometry>
        </mxCell>
        <mxCell id="m-6yGSShtTE2XHsjWKcb-71" value="" style="endArrow=none;html=1;rounded=0;strokeWidth=3;convertToSvg=1;fontSize=18;" parent="1" edge="1">
          <mxGeometry width="50" height="50" relative="1" as="geometry">
            <mxPoint x="120" y="200" as="sourcePoint" />
            <mxPoint x="280" y="40" as="targetPoint" />
          </mxGeometry>
        </mxCell>
        <mxCell id="m-6yGSShtTE2XHsjWKcb-17" value="" style="group;convertToSvg=1;fontSize=18;" parent="1" vertex="1" connectable="0">
          <mxGeometry x="110" y="190" width="20" height="20" as="geometry" />
        </mxCell>
        <mxCell id="m-6yGSShtTE2XHsjWKcb-11" value="" style="endArrow=none;html=1;rounded=0;strokeColor=light-dark(#000000,#0000FF);convertToSvg=1;fontSize=18;" parent="m-6yGSShtTE2XHsjWKcb-17" edge="1">
          <mxGeometry width="50" height="50" relative="1" as="geometry">
            <mxPoint y="10" as="sourcePoint" />
            <mxPoint x="20" y="10" as="targetPoint" />
          </mxGeometry>
        </mxCell>
        <mxCell id="m-6yGSShtTE2XHsjWKcb-12" value="" style="endArrow=none;html=1;rounded=0;strokeColor=light-dark(#000000,#0000FF);convertToSvg=1;fontSize=18;" parent="m-6yGSShtTE2XHsjWKcb-17" edge="1">
          <mxGeometry width="50" height="50" relative="1" as="geometry">
            <mxPoint x="10" y="20" as="sourcePoint" />
            <mxPoint x="10" as="targetPoint" />
          </mxGeometry>
        </mxCell>
        <mxCell id="m-6yGSShtTE2XHsjWKcb-21" value="" style="group;convertToSvg=1;fontSize=18;" parent="1" vertex="1" connectable="0">
          <mxGeometry x="190" y="110" width="20" height="20" as="geometry" />
        </mxCell>
        <mxCell id="m-6yGSShtTE2XHsjWKcb-22" value="" style="endArrow=none;html=1;rounded=0;strokeColor=light-dark(#000000,#0000FF);convertToSvg=1;fontSize=18;" parent="m-6yGSShtTE2XHsjWKcb-21" edge="1">
          <mxGeometry width="50" height="50" relative="1" as="geometry">
            <mxPoint y="10" as="sourcePoint" />
            <mxPoint x="20" y="10" as="targetPoint" />
          </mxGeometry>
        </mxCell>
        <mxCell id="m-6yGSShtTE2XHsjWKcb-23" value="" style="endArrow=none;html=1;rounded=0;strokeColor=light-dark(#000000,#0000FF);convertToSvg=1;fontSize=18;" parent="m-6yGSShtTE2XHsjWKcb-21" edge="1">
          <mxGeometry width="50" height="50" relative="1" as="geometry">
            <mxPoint x="10" y="20" as="sourcePoint" />
            <mxPoint x="10" as="targetPoint" />
          </mxGeometry>
        </mxCell>
        <mxCell id="m-6yGSShtTE2XHsjWKcb-27" value="" style="group;convertToSvg=1;fontSize=18;" parent="1" vertex="1" connectable="0">
          <mxGeometry x="240" y="60" width="20" height="20" as="geometry" />
        </mxCell>
        <mxCell id="m-6yGSShtTE2XHsjWKcb-28" value="" style="endArrow=none;html=1;rounded=0;strokeColor=light-dark(#000000,#0000FF);convertToSvg=1;fontSize=18;" parent="m-6yGSShtTE2XHsjWKcb-27" edge="1">
          <mxGeometry width="50" height="50" relative="1" as="geometry">
            <mxPoint y="10" as="sourcePoint" />
            <mxPoint x="20" y="10" as="targetPoint" />
          </mxGeometry>
        </mxCell>
        <mxCell id="m-6yGSShtTE2XHsjWKcb-29" value="" style="endArrow=none;html=1;rounded=0;strokeColor=light-dark(#000000,#0000FF);convertToSvg=1;fontSize=18;" parent="m-6yGSShtTE2XHsjWKcb-27" edge="1">
          <mxGeometry width="50" height="50" relative="1" as="geometry">
            <mxPoint x="10" y="20" as="sourcePoint" />
            <mxPoint x="10" as="targetPoint" />
          </mxGeometry>
        </mxCell>
        <mxCell id="m-6yGSShtTE2XHsjWKcb-30" value="" style="group;convertToSvg=1;fontSize=18;" parent="1" vertex="1" connectable="0">
          <mxGeometry x="140" y="160" width="20" height="20" as="geometry" />
        </mxCell>
        <mxCell id="m-6yGSShtTE2XHsjWKcb-31" value="" style="endArrow=none;html=1;rounded=0;strokeColor=light-dark(#000000,#0000FF);convertToSvg=1;fontSize=18;" parent="m-6yGSShtTE2XHsjWKcb-30" edge="1">
          <mxGeometry width="50" height="50" relative="1" as="geometry">
            <mxPoint y="10" as="sourcePoint" />
            <mxPoint x="20" y="10" as="targetPoint" />
          </mxGeometry>
        </mxCell>
        <mxCell id="m-6yGSShtTE2XHsjWKcb-32" value="" style="endArrow=none;html=1;rounded=0;strokeColor=light-dark(#000000,#0000FF);convertToSvg=1;fontSize=18;" parent="m-6yGSShtTE2XHsjWKcb-30" edge="1">
          <mxGeometry width="50" height="50" relative="1" as="geometry">
            <mxPoint x="10" y="20" as="sourcePoint" />
            <mxPoint x="10" as="targetPoint" />
          </mxGeometry>
        </mxCell>
        <mxCell id="m-6yGSShtTE2XHsjWKcb-33" value="" style="group;convertToSvg=1;fontSize=18;" parent="1" vertex="1" connectable="0">
          <mxGeometry x="390" y="30" width="20" height="20" as="geometry" />
        </mxCell>
        <mxCell id="m-6yGSShtTE2XHsjWKcb-34" value="" style="endArrow=none;html=1;rounded=0;strokeColor=light-dark(#000000,#0000FF);convertToSvg=1;fontSize=18;" parent="m-6yGSShtTE2XHsjWKcb-33" edge="1">
          <mxGeometry width="50" height="50" relative="1" as="geometry">
            <mxPoint y="10" as="sourcePoint" />
            <mxPoint x="20" y="10" as="targetPoint" />
          </mxGeometry>
        </mxCell>
        <mxCell id="m-6yGSShtTE2XHsjWKcb-35" value="" style="endArrow=none;html=1;rounded=0;strokeColor=light-dark(#000000,#0000FF);convertToSvg=1;fontSize=18;" parent="m-6yGSShtTE2XHsjWKcb-33" edge="1">
          <mxGeometry width="50" height="50" relative="1" as="geometry">
            <mxPoint x="10" y="20" as="sourcePoint" />
            <mxPoint x="10" as="targetPoint" />
          </mxGeometry>
        </mxCell>
        <mxCell id="m-6yGSShtTE2XHsjWKcb-36" value="" style="group;convertToSvg=1;fontSize=18;" parent="1" vertex="1" connectable="0">
          <mxGeometry x="550" y="190" width="20" height="20" as="geometry" />
        </mxCell>
        <mxCell id="m-6yGSShtTE2XHsjWKcb-37" value="" style="endArrow=none;html=1;rounded=0;strokeColor=light-dark(#000000,#0000FF);convertToSvg=1;fontSize=18;" parent="m-6yGSShtTE2XHsjWKcb-36" edge="1">
          <mxGeometry width="50" height="50" relative="1" as="geometry">
            <mxPoint y="10" as="sourcePoint" />
            <mxPoint x="20" y="10" as="targetPoint" />
          </mxGeometry>
        </mxCell>
        <mxCell id="m-6yGSShtTE2XHsjWKcb-38" value="" style="endArrow=none;html=1;rounded=0;strokeColor=light-dark(#000000,#0000FF);convertToSvg=1;fontSize=18;" parent="m-6yGSShtTE2XHsjWKcb-36" edge="1">
          <mxGeometry width="50" height="50" relative="1" as="geometry">
            <mxPoint x="10" y="20" as="sourcePoint" />
            <mxPoint x="10" as="targetPoint" />
          </mxGeometry>
        </mxCell>
        <mxCell id="m-6yGSShtTE2XHsjWKcb-39" value="" style="group;convertToSvg=1;fontSize=18;" parent="1" vertex="1" connectable="0">
          <mxGeometry x="470" y="110" width="20" height="20" as="geometry" />
        </mxCell>
        <mxCell id="m-6yGSShtTE2XHsjWKcb-40" value="" style="endArrow=none;html=1;rounded=0;strokeColor=light-dark(#000000,#0000FF);convertToSvg=1;fontSize=18;" parent="m-6yGSShtTE2XHsjWKcb-39" edge="1">
          <mxGeometry width="50" height="50" relative="1" as="geometry">
            <mxPoint y="10" as="sourcePoint" />
            <mxPoint x="20" y="10" as="targetPoint" />
          </mxGeometry>
        </mxCell>
        <mxCell id="m-6yGSShtTE2XHsjWKcb-41" value="" style="endArrow=none;html=1;rounded=0;strokeColor=light-dark(#000000,#0000FF);convertToSvg=1;fontSize=18;" parent="m-6yGSShtTE2XHsjWKcb-39" edge="1">
          <mxGeometry width="50" height="50" relative="1" as="geometry">
            <mxPoint x="10" y="20" as="sourcePoint" />
            <mxPoint x="10" as="targetPoint" />
          </mxGeometry>
        </mxCell>
        <mxCell id="m-6yGSShtTE2XHsjWKcb-42" value="" style="group;convertToSvg=1;fontSize=18;" parent="1" vertex="1" connectable="0">
          <mxGeometry x="420" y="60" width="20" height="20" as="geometry" />
        </mxCell>
        <mxCell id="m-6yGSShtTE2XHsjWKcb-43" value="" style="endArrow=none;html=1;rounded=0;strokeColor=light-dark(#000000,#0000FF);convertToSvg=1;fontSize=18;" parent="m-6yGSShtTE2XHsjWKcb-42" edge="1">
          <mxGeometry width="50" height="50" relative="1" as="geometry">
            <mxPoint y="10" as="sourcePoint" />
            <mxPoint x="20" y="10" as="targetPoint" />
          </mxGeometry>
        </mxCell>
        <mxCell id="m-6yGSShtTE2XHsjWKcb-44" value="" style="endArrow=none;html=1;rounded=0;strokeColor=light-dark(#000000,#0000FF);convertToSvg=1;fontSize=18;" parent="m-6yGSShtTE2XHsjWKcb-42" edge="1">
          <mxGeometry width="50" height="50" relative="1" as="geometry">
            <mxPoint x="10" y="20" as="sourcePoint" />
            <mxPoint x="10" as="targetPoint" />
          </mxGeometry>
        </mxCell>
        <mxCell id="m-6yGSShtTE2XHsjWKcb-45" value="" style="group;convertToSvg=1;fontSize=18;" parent="1" vertex="1" connectable="0">
          <mxGeometry x="520" y="160" width="20" height="20" as="geometry" />
        </mxCell>
        <mxCell id="m-6yGSShtTE2XHsjWKcb-46" value="" style="endArrow=none;html=1;rounded=0;strokeColor=light-dark(#000000,#0000FF);convertToSvg=1;fontSize=18;" parent="m-6yGSShtTE2XHsjWKcb-45" edge="1">
          <mxGeometry width="50" height="50" relative="1" as="geometry">
            <mxPoint y="10" as="sourcePoint" />
            <mxPoint x="20" y="10" as="targetPoint" />
          </mxGeometry>
        </mxCell>
        <mxCell id="m-6yGSShtTE2XHsjWKcb-47" value="" style="endArrow=none;html=1;rounded=0;strokeColor=light-dark(#000000,#0000FF);convertToSvg=1;fontSize=18;" parent="m-6yGSShtTE2XHsjWKcb-45" edge="1">
          <mxGeometry width="50" height="50" relative="1" as="geometry">
            <mxPoint x="10" y="20" as="sourcePoint" />
            <mxPoint x="10" as="targetPoint" />
          </mxGeometry>
        </mxCell>
        <mxCell id="m-6yGSShtTE2XHsjWKcb-48" value="" style="group;convertToSvg=1;fontSize=18;" parent="1" vertex="1" connectable="0">
          <mxGeometry x="1030" y="190" width="20" height="20" as="geometry" />
        </mxCell>
        <mxCell id="m-6yGSShtTE2XHsjWKcb-49" value="" style="endArrow=none;html=1;rounded=0;strokeColor=light-dark(#000000,#0000FF);convertToSvg=1;fontSize=18;" parent="m-6yGSShtTE2XHsjWKcb-48" edge="1">
          <mxGeometry width="50" height="50" relative="1" as="geometry">
            <mxPoint y="10" as="sourcePoint" />
            <mxPoint x="20" y="10" as="targetPoint" />
          </mxGeometry>
        </mxCell>
        <mxCell id="m-6yGSShtTE2XHsjWKcb-50" value="" style="endArrow=none;html=1;rounded=0;strokeColor=light-dark(#000000,#0000FF);convertToSvg=1;fontSize=18;" parent="m-6yGSShtTE2XHsjWKcb-48" edge="1">
          <mxGeometry width="50" height="50" relative="1" as="geometry">
            <mxPoint x="10" y="20" as="sourcePoint" />
            <mxPoint x="10" as="targetPoint" />
          </mxGeometry>
        </mxCell>
        <mxCell id="m-6yGSShtTE2XHsjWKcb-51" value="10%" style="text;html=1;align=center;verticalAlign=middle;whiteSpace=wrap;rounded=0;convertToSvg=1;fontSize=18;" parent="1" vertex="1">
          <mxGeometry x="105" y="160" width="30" height="20" as="geometry" />
        </mxCell>
        <mxCell id="m-6yGSShtTE2XHsjWKcb-52" value="10%" style="text;html=1;align=center;verticalAlign=middle;whiteSpace=wrap;rounded=0;convertToSvg=1;fontSize=18;" parent="1" vertex="1">
          <mxGeometry x="545" y="160" width="30" height="20" as="geometry" />
        </mxCell>
        <mxCell id="m-6yGSShtTE2XHsjWKcb-53" value="90%" style="text;html=1;align=center;verticalAlign=middle;whiteSpace=wrap;rounded=0;convertToSvg=1;fontSize=18;" parent="1" vertex="1">
          <mxGeometry x="201" y="60" width="30" height="20" as="geometry" />
        </mxCell>
        <mxCell id="m-6yGSShtTE2XHsjWKcb-54" value="50%" style="text;html=1;align=center;verticalAlign=middle;whiteSpace=wrap;rounded=0;convertToSvg=1;fontSize=18;" parent="1" vertex="1">
          <mxGeometry x="150" y="110" width="30" height="20" as="geometry" />
        </mxCell>
        <mxCell id="m-6yGSShtTE2XHsjWKcb-55" value="90%" style="text;html=1;align=center;verticalAlign=middle;whiteSpace=wrap;rounded=0;convertToSvg=1;fontSize=18;" parent="1" vertex="1">
          <mxGeometry x="450" y="60" width="30" height="20" as="geometry" />
        </mxCell>
        <mxCell id="m-6yGSShtTE2XHsjWKcb-57" value="50%" style="text;html=1;align=center;verticalAlign=middle;whiteSpace=wrap;rounded=0;convertToSvg=1;fontSize=18;" parent="1" vertex="1">
          <mxGeometry x="499.5" y="110" width="30" height="20" as="geometry" />
        </mxCell>
        <mxCell id="m-6yGSShtTE2XHsjWKcb-61" value="0%" style="text;html=1;align=center;verticalAlign=middle;whiteSpace=wrap;rounded=0;convertToSvg=1;fontSize=18;" parent="1" vertex="1">
          <mxGeometry x="50" y="190" width="30" height="20" as="geometry" />
        </mxCell>
        <mxCell id="m-6yGSShtTE2XHsjWKcb-62" value="100%" style="text;html=1;align=center;verticalAlign=middle;whiteSpace=wrap;rounded=0;convertToSvg=1;fontSize=18;" parent="1" vertex="1">
          <mxGeometry x="230" y="30" width="30" height="20" as="geometry" />
        </mxCell>
        <mxCell id="m-6yGSShtTE2XHsjWKcb-63" value="100%" style="text;html=1;align=center;verticalAlign=middle;whiteSpace=wrap;rounded=0;convertToSvg=1;fontSize=18;" parent="1" vertex="1">
          <mxGeometry x="420" y="30" width="30" height="20" as="geometry" />
        </mxCell>
        <mxCell id="m-6yGSShtTE2XHsjWKcb-64" value="" style="endArrow=none;html=1;rounded=0;convertToSvg=1;fontSize=18;" parent="1" edge="1">
          <mxGeometry width="50" height="50" relative="1" as="geometry">
            <mxPoint x="120" y="230" as="sourcePoint" />
            <mxPoint x="120" y="220" as="targetPoint" />
          </mxGeometry>
        </mxCell>
        <mxCell id="m-6yGSShtTE2XHsjWKcb-65" value="" style="endArrow=none;html=1;rounded=0;convertToSvg=1;fontSize=18;" parent="1" edge="1">
          <mxGeometry width="50" height="50" relative="1" as="geometry">
            <mxPoint x="560" y="230" as="sourcePoint" />
            <mxPoint x="560" y="220" as="targetPoint" />
          </mxGeometry>
        </mxCell>
        <mxCell id="m-6yGSShtTE2XHsjWKcb-66" value="" style="endArrow=none;html=1;rounded=0;convertToSvg=1;fontSize=18;" parent="1" edge="1">
          <mxGeometry width="50" height="50" relative="1" as="geometry">
            <mxPoint x="1039.9499999999998" y="230" as="sourcePoint" />
            <mxPoint x="1039.9499999999998" y="220" as="targetPoint" />
          </mxGeometry>
        </mxCell>
        <mxCell id="m-6yGSShtTE2XHsjWKcb-81" value="" style="endArrow=none;html=1;rounded=0;convertToSvg=1;fontSize=18;" parent="1" edge="1">
          <mxGeometry width="50" height="50" relative="1" as="geometry">
            <mxPoint x="150" y="210" as="sourcePoint" />
            <mxPoint x="150" y="190" as="targetPoint" />
          </mxGeometry>
        </mxCell>
        <mxCell id="m-6yGSShtTE2XHsjWKcb-82" value="" style="endArrow=none;html=1;rounded=0;convertToSvg=1;fontSize=18;" parent="1" edge="1">
          <mxGeometry width="50" height="50" relative="1" as="geometry">
            <mxPoint x="200" y="230" as="sourcePoint" />
            <mxPoint x="200" y="140" as="targetPoint" />
          </mxGeometry>
        </mxCell>
        <mxCell id="m-6yGSShtTE2XHsjWKcb-83" value="" style="endArrow=none;html=1;rounded=0;convertToSvg=1;fontSize=18;" parent="1" edge="1">
          <mxGeometry width="50" height="50" relative="1" as="geometry">
            <mxPoint x="250" y="210" as="sourcePoint" />
            <mxPoint x="250" y="90" as="targetPoint" />
          </mxGeometry>
        </mxCell>
        <mxCell id="m-6yGSShtTE2XHsjWKcb-84" value="" style="endArrow=none;html=1;rounded=0;convertToSvg=1;fontSize=18;" parent="1" edge="1">
          <mxGeometry width="50" height="50" relative="1" as="geometry">
            <mxPoint x="280" y="230" as="sourcePoint" />
            <mxPoint x="280" y="60" as="targetPoint" />
          </mxGeometry>
        </mxCell>
        <mxCell id="m-6yGSShtTE2XHsjWKcb-85" value="" style="endArrow=none;html=1;rounded=0;convertToSvg=1;fontSize=18;" parent="1" edge="1">
          <mxGeometry width="50" height="50" relative="1" as="geometry">
            <mxPoint x="400" y="230" as="sourcePoint" />
            <mxPoint x="399.71" y="60" as="targetPoint" />
          </mxGeometry>
        </mxCell>
        <mxCell id="m-6yGSShtTE2XHsjWKcb-88" value="" style="endArrow=none;html=1;rounded=0;convertToSvg=1;fontSize=18;" parent="1" edge="1">
          <mxGeometry width="50" height="50" relative="1" as="geometry">
            <mxPoint x="430" y="210" as="sourcePoint" />
            <mxPoint x="429.71000000000004" y="90" as="targetPoint" />
          </mxGeometry>
        </mxCell>
        <mxCell id="m-6yGSShtTE2XHsjWKcb-89" value="" style="endArrow=none;html=1;rounded=0;convertToSvg=1;fontSize=18;" parent="1" edge="1">
          <mxGeometry width="50" height="50" relative="1" as="geometry">
            <mxPoint x="480" y="230" as="sourcePoint" />
            <mxPoint x="479.71" y="140" as="targetPoint" />
          </mxGeometry>
        </mxCell>
        <mxCell id="m-6yGSShtTE2XHsjWKcb-90" value="" style="endArrow=none;html=1;rounded=0;convertToSvg=1;fontSize=18;" parent="1" edge="1">
          <mxGeometry width="50" height="50" relative="1" as="geometry">
            <mxPoint x="530" y="210" as="sourcePoint" />
            <mxPoint x="530" y="190" as="targetPoint" />
          </mxGeometry>
        </mxCell>
        <mxCell id="m-6yGSShtTE2XHsjWKcb-91" value="0" style="text;html=1;align=center;verticalAlign=middle;whiteSpace=wrap;rounded=0;convertToSvg=1;fontSize=18;" parent="1" vertex="1">
          <mxGeometry x="100.5" y="230" width="39" height="20" as="geometry" />
        </mxCell>
        <mxCell id="m-6yGSShtTE2XHsjWKcb-92" value="20" style="text;html=1;align=center;verticalAlign=middle;whiteSpace=wrap;rounded=0;convertToSvg=1;fontSize=18;" parent="1" vertex="1">
          <mxGeometry x="130" y="210" width="39" height="20" as="geometry" />
        </mxCell>
        <mxCell id="m-6yGSShtTE2XHsjWKcb-94" value="100" style="text;html=1;align=center;verticalAlign=middle;whiteSpace=wrap;rounded=0;convertToSvg=1;fontSize=18;" parent="1" vertex="1">
          <mxGeometry x="180" y="230" width="39" height="20" as="geometry" />
        </mxCell>
        <mxCell id="m-6yGSShtTE2XHsjWKcb-95" value="" style="endArrow=none;html=1;rounded=0;convertToSvg=1;fontSize=18;" parent="1" edge="1">
          <mxGeometry width="50" height="50" relative="1" as="geometry">
            <mxPoint x="250" y="210" as="sourcePoint" />
            <mxPoint x="250" y="160" as="targetPoint" />
          </mxGeometry>
        </mxCell>
        <mxCell id="m-6yGSShtTE2XHsjWKcb-96" value="180" style="text;html=1;align=center;verticalAlign=middle;whiteSpace=wrap;rounded=0;convertToSvg=1;fontSize=18;" parent="1" vertex="1">
          <mxGeometry x="231" y="210" width="39" height="20" as="geometry" />
        </mxCell>
        <mxCell id="m-6yGSShtTE2XHsjWKcb-97" value="200" style="text;html=1;align=center;verticalAlign=middle;whiteSpace=wrap;rounded=0;convertToSvg=1;fontSize=18;" parent="1" vertex="1">
          <mxGeometry x="260" y="230" width="39" height="20" as="geometry" />
        </mxCell>
        <mxCell id="m-6yGSShtTE2XHsjWKcb-98" value="1000" style="text;html=1;align=center;verticalAlign=middle;whiteSpace=wrap;rounded=0;rotation=0;convertToSvg=1;fontSize=18;" parent="1" vertex="1">
          <mxGeometry x="380.5" y="230" width="39.5" height="20" as="geometry" />
        </mxCell>
        <mxCell id="m-6yGSShtTE2XHsjWKcb-99" value="1020" style="text;html=1;align=center;verticalAlign=middle;whiteSpace=wrap;rounded=0;convertToSvg=1;fontSize=18;" parent="1" vertex="1">
          <mxGeometry x="410.5" y="210" width="39" height="20" as="geometry" />
        </mxCell>
        <mxCell id="m-6yGSShtTE2XHsjWKcb-100" value="1100" style="text;html=1;align=center;verticalAlign=middle;whiteSpace=wrap;rounded=0;convertToSvg=1;fontSize=18;" parent="1" vertex="1">
          <mxGeometry x="460.5" y="230" width="39" height="20" as="geometry" />
        </mxCell>
        <mxCell id="m-6yGSShtTE2XHsjWKcb-101" value="1180" style="text;html=1;align=center;verticalAlign=middle;whiteSpace=wrap;rounded=0;convertToSvg=1;fontSize=18;" parent="1" vertex="1">
          <mxGeometry x="511" y="210" width="39" height="20" as="geometry" />
        </mxCell>
        <mxCell id="m-6yGSShtTE2XHsjWKcb-102" value="1200" style="text;html=1;align=center;verticalAlign=middle;whiteSpace=wrap;rounded=0;convertToSvg=1;fontSize=18;" parent="1" vertex="1">
          <mxGeometry x="540.5" y="230" width="39" height="20" as="geometry" />
        </mxCell>
        <mxCell id="m-6yGSShtTE2XHsjWKcb-103" value="5000" style="text;html=1;align=center;verticalAlign=middle;whiteSpace=wrap;rounded=0;convertToSvg=1;fontSize=18;" parent="1" vertex="1">
          <mxGeometry x="1020.5" y="230" width="39" height="20" as="geometry" />
        </mxCell>
        <mxCell id="bZl-XKpnZAw_Wh-4H5vK-2" value="Temps en ns" style="text;html=1;align=center;verticalAlign=middle;whiteSpace=wrap;rounded=0;fontSize=18;" parent="1" vertex="1">
          <mxGeometry x="650" y="210" width="110" height="30" as="geometry" />
        </mxCell>
      </root>
    </mxGraphModel>
  </diagram>
</mxfile>
